<svg height="166" viewBox="0 0 250 166" width="250" xmlns="http://www.w3.org/2000/svg" xmlns:xlink="http://www.w3.org/1999/xlink"><linearGradient id="a"><stop offset="0" stop-color="#808080" stop-opacity=".25"/><stop offset=".54" stop-color="#808080" stop-opacity=".12"/><stop offset="1" stop-color="#808080" stop-opacity=".1"/></linearGradient><linearGradient id="b" x1="50.001617%" x2="50.001617%" xlink:href="#a" y1="100%" y2="0%"/><linearGradient id="c" x1="50.00164%" x2="50.00164%" xlink:href="#a" y1="-29.462633%" y2="0%"/><linearGradient id="d" x1="50%" x2="50%" xlink:href="#a" y1="-18.202765%" y2="0%"/><linearGradient id="e" x1="50%" x2="50%" xlink:href="#a" y1="100%" y2="0%"/><linearGradient id="f" x1="49.992292%" x2="49.992292%" xlink:href="#a" y1="100%" y2="0%"/><linearGradient id="g" x1="100%" x2="0%" xlink:href="#a" y1="50%" y2="50%"/><linearGradient id="h" x1="100%" x2=".031646%" xlink:href="#a" y1="50%" y2="50%"/><linearGradient id="i" x1="99.968354%" x2="0%" xlink:href="#a" y1="50%" y2="50%"/><g fill="none" transform="translate(37.024675)"><path d="m33.3020381 165.959083-5.3267134.040917 62.7199922-128 4.2800078 2.1039739z" fill="url(#b)"/><path d="m155.593079 165.959083 4.382246.040917-61.7238464-128-4.2761539 2.1039739z" fill="url(#c)"/><path d="m91.975325 26h5v140h-5z" fill="url(#d)"/><path d="m33.3020381 164.959089-5.3267134.040911 62.7199922-127 4.2800078 2.0864855z" fill="#bdbdbd"/><path d="m155.593079 164.959089 4.382246.040911-61.7238464-127-4.2761539 2.0864855z" fill="#bdbdbd"/><path d="m91.975325 26h5v139h-5z" fill="#bdbdbd"/><path d="m93.9753247 14c-3.3137085 0-6-2.6591572-6-5.93939394v-2.12121212c0-3.2802367 2.6862915-5.93939394 6-5.93939394s6 2.65915724 6 5.93939394v2.12121212c0 1.57522521-.6321411 3.08593334-1.7573593 4.19978574-1.1252183 1.1138524-2.6513418 1.7396082-4.2426407 1.7396082zm0-12.51515152c-2.4852814 0-4.5 1.99436794-4.5 4.45454546v2.12121212c0 2.46017754 2.0147186 4.45454544 4.5 4.45454544 2.4852813 0 4.5-1.9943679 4.5-4.45454544v-2.12121212c0-2.46017752-2.0147187-4.45454546-4.5-4.45454546z" fill="#bdbdbd"/><path d="m.975325 5h186v87h-186z" fill="url(#e)"/><path d="m2.975325 7h182v82h-182z" fill="#bdbdbd"/><path d="m5.975325 9h175v75h-175z" fill="#fff"/><path d="m141.136231 12.0043165h-.160906v53.9956835h.160906c9.588684 0 18.448994-5.1461708 23.243337-13.5 4.794342-8.353829 4.794342-18.646171 0-27-4.794343-8.3538292-13.654653-13.5-23.243337-13.5z" fill="#2196f3"/><path d="m140.975325 12c-14.874698.0889269-26.911073 12.1253022-27 27h27z" fill="#69f0ae"/><path d="m112.975325 39v.1684435c.000895 15.3049219 12.508982 27.737762 28 27.8315565v-28z" fill="url(#f)"/><path d="m112.975325 39v.1609186c-.000276 14.7593676 12.061654 26.749409 27 26.8390814v-27z" fill="#387ed1"/><path d="m10.975325 14h52v4h-52z" fill="#bdbdbd"/><path d="m10.975325 20h83v4h-83z" fill="#e0e0e0"/><path d="m10.975325 26h83v4h-83z" fill="#e0e0e0"/><path d="m10.975325 32h83v4h-83z" fill="#e0e0e0"/><path d="m150.975325 74h6v6h-6z" fill="#2196f3"/><path d="m158.975325 76h19v3h-19z" fill="#e0e0e0"/><path d="m117.975325 74h6v6h-6z" fill="#387ed1"/><path d="m125.975325 76h19v3h-19z" fill="#e0e0e0"/><path d="m85.975325 74h6v6h-6z" fill="#69f0ae"/><g fill="#e0e0e0"><path d="m93.975325 76h19v3h-19z"/><path d="m44.975325 44h2v29h-2z"/><path d="m48.975325 44h2v29h-2z"/><path d="m53.975325 44h2v29h-2z"/><path d="m58.975325 44h2v29h-2z"/></g><circle cx="45.475325" cy="61.5" fill="url(#g)" r="3.5"/><circle cx="50.475325" cy="53.5" fill="url(#h)" r="3.5"/><circle cx="55.475325" cy="57.5" fill="url(#i)" r="3.5"/><circle cx="59.475325" cy="45.5" fill="url(#g)" r="3.5"/><circle cx="45.975325" cy="62" fill="#387ed1" r="3"/><circle cx="49.975325" cy="53" fill="#69f0ae" r="3"/><circle cx="54.975325" cy="58" fill="#2196f3" r="3"/><circle cx="59.975325" cy="46" fill="#387ed1" r="3"/></g></svg>